<svg width="200" height="20" viewBox="0 0 200 20" fill="none" xmlns="http://www.w3.org/2000/svg">
<rect x="50.5" y="0.597656" width="99" height="19" rx="8" fill="#FFEFEF"/>
<path d="M60.362 14.6677C60.1473 14.6677 59.9747 14.6023 59.844 14.4717C59.7133 14.341 59.648 14.1637 59.648 13.9397V5.38566C59.648 5.17099 59.7133 4.99832 59.844 4.86766C59.9747 4.72766 60.1473 4.65766 60.362 4.65766C60.586 4.65766 60.7633 4.72299 60.894 4.85366C61.0247 4.98432 61.09 5.16166 61.09 5.38566V13.9397C61.09 14.1637 61.0247 14.341 60.894 14.4717C60.7727 14.6023 60.5953 14.6677 60.362 14.6677ZM66.8944 7.59766C68.5278 7.59766 69.3444 8.51699 69.3444 10.3557V13.9957C69.3444 14.2103 69.2791 14.3783 69.1484 14.4997C69.0271 14.6117 68.8544 14.6677 68.6304 14.6677C68.4158 14.6677 68.2431 14.607 68.1124 14.4857C67.9911 14.3643 67.9304 14.201 67.9304 13.9957V10.4257C67.9304 9.84699 67.8138 9.42232 67.5804 9.15166C67.3564 8.88099 67.0018 8.74566 66.5164 8.74566C65.9471 8.74566 65.4898 8.92299 65.1444 9.27766C64.7991 9.63232 64.6264 10.1083 64.6264 10.7057V13.9957C64.6264 14.201 64.5611 14.3643 64.4304 14.4857C64.3091 14.607 64.1411 14.6677 63.9264 14.6677C63.7118 14.6677 63.5391 14.607 63.4084 14.4857C63.2778 14.3643 63.2124 14.201 63.2124 13.9957V8.29766C63.2124 8.10166 63.2778 7.94299 63.4084 7.82166C63.5484 7.69099 63.7211 7.62566 63.9264 7.62566C64.1318 7.62566 64.2951 7.68632 64.4164 7.80766C64.5378 7.92899 64.5984 8.08766 64.5984 8.28366V8.85766C64.8224 8.44699 65.1351 8.13432 65.5364 7.91966C65.9378 7.70499 66.3904 7.59766 66.8944 7.59766ZM74.1488 7.59766C75.0542 7.59766 75.7262 7.82632 76.1648 8.28366C76.6128 8.74099 76.8368 9.43632 76.8368 10.3697V13.9957C76.8368 14.2103 76.7762 14.3783 76.6548 14.4997C76.5335 14.6117 76.3655 14.6677 76.1508 14.6677C75.9455 14.6677 75.7822 14.607 75.6608 14.4857C75.5395 14.3643 75.4788 14.201 75.4788 13.9957V13.4777C75.3015 13.8697 75.0355 14.173 74.6808 14.3877C74.3355 14.593 73.9295 14.6957 73.4628 14.6957C73.0148 14.6957 72.6042 14.607 72.2308 14.4297C71.8668 14.243 71.5775 13.991 71.3628 13.6737C71.1482 13.3563 71.0408 12.997 71.0408 12.5957C71.0315 12.0917 71.1575 11.6997 71.4188 11.4197C71.6802 11.1303 72.1048 10.925 72.6928 10.8037C73.2808 10.673 74.0975 10.6077 75.1428 10.6077H75.4648V10.2017C75.4648 9.67899 75.3575 9.30099 75.1428 9.06766C74.9282 8.83432 74.5828 8.71766 74.1068 8.71766C73.7802 8.71766 73.4722 8.75966 73.1828 8.84366C72.8935 8.92766 72.5762 9.04899 72.2308 9.20766C71.9788 9.34766 71.8015 9.41766 71.6988 9.41766C71.5588 9.41766 71.4422 9.36632 71.3488 9.26366C71.2648 9.16099 71.2228 9.03032 71.2228 8.87166C71.2228 8.73166 71.2602 8.61032 71.3348 8.50766C71.4188 8.39566 71.5495 8.28832 71.7268 8.18566C72.0535 8.00832 72.4362 7.86832 72.8748 7.76566C73.3135 7.65366 73.7382 7.59766 74.1488 7.59766ZM73.7148 13.6457C74.2282 13.6457 74.6482 13.473 74.9748 13.1277C75.3015 12.773 75.4648 12.3203 75.4648 11.7697V11.4057H75.2128C74.4848 11.4057 73.9248 11.4383 73.5328 11.5037C73.1408 11.569 72.8608 11.681 72.6928 11.8397C72.5248 11.989 72.4408 12.2083 72.4408 12.4977C72.4408 12.8337 72.5622 13.109 72.8048 13.3237C73.0475 13.5383 73.3508 13.6457 73.7148 13.6457ZM84.357 4.65766C84.5717 4.65766 84.7443 4.71832 84.875 4.83966C85.0057 4.96099 85.071 5.12432 85.071 5.32966V13.9817C85.071 14.1963 85.0057 14.3643 84.875 14.4857C84.7537 14.607 84.5857 14.6677 84.371 14.6677C84.1563 14.6677 83.9837 14.607 83.853 14.4857C83.7317 14.3643 83.671 14.1963 83.671 13.9817V13.4217C83.4657 13.8323 83.167 14.1497 82.775 14.3737C82.383 14.5883 81.9303 14.6957 81.417 14.6957C80.829 14.6957 80.3017 14.5463 79.835 14.2477C79.3777 13.949 79.0183 13.529 78.757 12.9877C78.505 12.4463 78.379 11.8257 78.379 11.1257C78.379 10.4163 78.505 9.79566 78.757 9.26366C79.0183 8.73166 79.3777 8.32099 79.835 8.03166C80.2923 7.74232 80.8197 7.59766 81.417 7.59766C81.9303 7.59766 82.3783 7.70966 82.761 7.93366C83.153 8.14832 83.4517 8.45632 83.657 8.85766V5.30166C83.657 5.10566 83.7177 4.95166 83.839 4.83966C83.9697 4.71832 84.1423 4.65766 84.357 4.65766ZM81.753 13.5757C82.3597 13.5757 82.831 13.3657 83.167 12.9457C83.503 12.5257 83.671 11.9283 83.671 11.1537C83.671 10.379 83.503 9.78166 83.167 9.36166C82.8403 8.94166 82.369 8.73166 81.753 8.73166C81.137 8.73166 80.6563 8.94166 80.311 9.36166C79.975 9.77232 79.807 10.3603 79.807 11.1257C79.807 11.891 79.9797 12.493 80.325 12.9317C80.6703 13.361 81.1463 13.5757 81.753 13.5757ZM87.7565 14.6677C87.5512 14.6677 87.3785 14.6117 87.2385 14.4997C87.1078 14.3877 87.0425 14.2197 87.0425 13.9957V8.31166C87.0425 8.08766 87.1078 7.91966 87.2385 7.80766C87.3785 7.68632 87.5512 7.62566 87.7565 7.62566C87.9618 7.62566 88.1298 7.68632 88.2605 7.80766C88.3912 7.91966 88.4565 8.08766 88.4565 8.31166V13.9957C88.4565 14.2197 88.3912 14.3877 88.2605 14.4997C88.1298 14.6117 87.9618 14.6677 87.7565 14.6677ZM87.7565 6.25366C87.4858 6.25366 87.2712 6.17899 87.1125 6.02966C86.9538 5.88032 86.8745 5.68432 86.8745 5.44166C86.8745 5.19899 86.9538 5.00766 87.1125 4.86766C87.2712 4.71832 87.4858 4.64366 87.7565 4.64366C88.0178 4.64366 88.2278 4.71832 88.3865 4.86766C88.5545 5.00766 88.6385 5.19899 88.6385 5.44166C88.6385 5.68432 88.5592 5.88032 88.4005 6.02966C88.2418 6.17899 88.0272 6.25366 87.7565 6.25366ZM98.2731 7.59766C99.8038 7.59766 100.569 8.51699 100.569 10.3557V13.9957C100.569 14.2103 100.504 14.3783 100.373 14.4997C100.242 14.6117 100.07 14.6677 99.8551 14.6677C99.6498 14.6677 99.4818 14.6117 99.3511 14.4997C99.2205 14.3783 99.1551 14.2103 99.1551 13.9957V10.3697C99.1551 9.80032 99.0525 9.38966 98.8471 9.13766C98.6418 8.87632 98.3198 8.74566 97.8811 8.74566C97.3678 8.74566 96.9618 8.92299 96.6631 9.27766C96.3645 9.62299 96.2151 10.099 96.2151 10.7057V13.9957C96.2151 14.2103 96.1498 14.3783 96.0191 14.4997C95.8885 14.6117 95.7158 14.6677 95.5011 14.6677C95.2958 14.6677 95.1278 14.6117 94.9971 14.4997C94.8665 14.3783 94.8011 14.2103 94.8011 13.9957V10.3697C94.8011 9.80032 94.6985 9.38966 94.4931 9.13766C94.2878 8.87632 93.9658 8.74566 93.5271 8.74566C93.0138 8.74566 92.6031 8.92299 92.2951 9.27766C91.9965 9.62299 91.8471 10.099 91.8471 10.7057V13.9957C91.8471 14.2103 91.7818 14.3783 91.6511 14.4997C91.5205 14.6117 91.3525 14.6677 91.1471 14.6677C90.9418 14.6677 90.7691 14.6117 90.6291 14.4997C90.4985 14.3783 90.4331 14.2103 90.4331 13.9957V8.29766C90.4331 8.09232 90.5031 7.92899 90.6431 7.80766C90.7831 7.68632 90.9511 7.62566 91.1471 7.62566C91.3431 7.62566 91.5018 7.68632 91.6231 7.80766C91.7538 7.91966 91.8191 8.07832 91.8191 8.28366V8.80166C92.0245 8.40966 92.3091 8.11099 92.6731 7.90566C93.0371 7.70032 93.4571 7.59766 93.9331 7.59766C94.4558 7.59766 94.8851 7.70499 95.2211 7.91966C95.5665 8.13432 95.8231 8.46566 95.9911 8.91366C96.1965 8.51232 96.4998 8.19499 96.9011 7.96166C97.3025 7.71899 97.7598 7.59766 98.2731 7.59766ZM106.173 7.59766C106.761 7.59766 107.284 7.74699 107.741 8.04566C108.208 8.34432 108.567 8.76432 108.819 9.30566C109.081 9.84699 109.211 10.4723 109.211 11.1817C109.211 11.8817 109.085 12.4977 108.833 13.0297C108.581 13.5617 108.222 13.9723 107.755 14.2617C107.298 14.551 106.771 14.6957 106.173 14.6957C105.66 14.6957 105.207 14.5883 104.815 14.3737C104.423 14.1497 104.125 13.8323 103.919 13.4217V16.5437C103.919 16.7397 103.854 16.8937 103.723 17.0057C103.602 17.127 103.439 17.1877 103.233 17.1877C103.019 17.1877 102.841 17.127 102.701 17.0057C102.571 16.8843 102.505 16.721 102.505 16.5157V8.31166C102.505 8.10632 102.571 7.94299 102.701 7.82166C102.832 7.69099 103.005 7.62566 103.219 7.62566C103.425 7.62566 103.593 7.69099 103.723 7.82166C103.854 7.94299 103.919 8.10632 103.919 8.31166V8.88566C104.125 8.47499 104.423 8.15766 104.815 7.93366C105.207 7.70966 105.66 7.59766 106.173 7.59766ZM105.837 13.5757C106.453 13.5757 106.929 13.3703 107.265 12.9597C107.601 12.5397 107.769 11.947 107.769 11.1817C107.769 10.407 107.597 9.80499 107.251 9.37566C106.915 8.94632 106.444 8.73166 105.837 8.73166C105.221 8.73166 104.745 8.94166 104.409 9.36166C104.083 9.78166 103.919 10.379 103.919 11.1537C103.919 11.9283 104.083 12.5257 104.409 12.9457C104.745 13.3657 105.221 13.5757 105.837 13.5757ZM111.491 14.6677C111.286 14.6677 111.113 14.6117 110.973 14.4997C110.842 14.3877 110.777 14.2197 110.777 13.9957V5.34366C110.777 5.11966 110.842 4.95166 110.973 4.83966C111.113 4.71832 111.286 4.65766 111.491 4.65766C111.696 4.65766 111.864 4.71832 111.995 4.83966C112.126 4.95166 112.191 5.11966 112.191 5.34366V13.9957C112.191 14.2197 112.126 14.3877 111.995 14.4997C111.864 14.6117 111.696 14.6677 111.491 14.6677ZM119.516 12.8757C119.646 12.8757 119.754 12.927 119.838 13.0297C119.922 13.1323 119.964 13.263 119.964 13.4217C119.964 13.6923 119.796 13.921 119.46 14.1077C119.133 14.2943 118.774 14.439 118.382 14.5417C117.999 14.6443 117.63 14.6957 117.276 14.6957C116.193 14.6957 115.339 14.383 114.714 13.7577C114.088 13.123 113.776 12.2597 113.776 11.1677C113.776 10.4677 113.911 9.84699 114.182 9.30566C114.462 8.76432 114.849 8.34432 115.344 8.04566C115.848 7.74699 116.417 7.59766 117.052 7.59766C117.966 7.59766 118.69 7.89166 119.222 8.47966C119.754 9.06766 120.02 9.86099 120.02 10.8597C120.02 11.233 119.852 11.4197 119.516 11.4197H115.19C115.283 12.8663 115.978 13.5897 117.276 13.5897C117.621 13.5897 117.92 13.543 118.172 13.4497C118.424 13.3563 118.69 13.235 118.97 13.0857C118.998 13.067 119.072 13.0297 119.194 12.9737C119.324 12.9083 119.432 12.8757 119.516 12.8757ZM117.08 8.63366C116.538 8.63366 116.104 8.80632 115.778 9.15166C115.451 9.49699 115.255 9.98232 115.19 10.6077H118.802C118.774 9.97299 118.61 9.48766 118.312 9.15166C118.022 8.80632 117.612 8.63366 117.08 8.63366ZM125.26 7.59766C126.893 7.59766 127.71 8.51699 127.71 10.3557V13.9957C127.71 14.2103 127.644 14.3783 127.514 14.4997C127.392 14.6117 127.22 14.6677 126.996 14.6677C126.781 14.6677 126.608 14.607 126.478 14.4857C126.356 14.3643 126.296 14.201 126.296 13.9957V10.4257C126.296 9.84699 126.179 9.42232 125.946 9.15166C125.722 8.88099 125.367 8.74566 124.882 8.74566C124.312 8.74566 123.855 8.92299 123.51 9.27766C123.164 9.63232 122.992 10.1083 122.992 10.7057V13.9957C122.992 14.201 122.926 14.3643 122.796 14.4857C122.674 14.607 122.506 14.6677 122.292 14.6677C122.077 14.6677 121.904 14.607 121.774 14.4857C121.643 14.3643 121.578 14.201 121.578 13.9957V8.29766C121.578 8.10166 121.643 7.94299 121.774 7.82166C121.914 7.69099 122.086 7.62566 122.292 7.62566C122.497 7.62566 122.66 7.68632 122.782 7.80766C122.903 7.92899 122.964 8.08766 122.964 8.28366V8.85766C123.188 8.44699 123.5 8.13432 123.902 7.91966C124.303 7.70499 124.756 7.59766 125.26 7.59766ZM132.99 13.5897C133.195 13.6083 133.34 13.6643 133.424 13.7577C133.517 13.8417 133.564 13.963 133.564 14.1217C133.564 14.3083 133.489 14.453 133.34 14.5557C133.2 14.649 132.99 14.6863 132.71 14.6677L132.332 14.6397C131.576 14.5837 131.011 14.355 130.638 13.9537C130.265 13.543 130.078 12.941 130.078 12.1477V8.85766H129.238C128.827 8.85766 128.622 8.67566 128.622 8.31166C128.622 8.14366 128.673 8.01299 128.776 7.91966C128.888 7.81699 129.042 7.76566 129.238 7.76566H130.078V6.32366C130.078 6.10899 130.139 5.94099 130.26 5.81966C130.391 5.69832 130.563 5.63766 130.778 5.63766C130.993 5.63766 131.165 5.69832 131.296 5.81966C131.427 5.94099 131.492 6.10899 131.492 6.32366V7.76566H132.878C133.074 7.76566 133.223 7.81699 133.326 7.91966C133.438 8.01299 133.494 8.14366 133.494 8.31166C133.494 8.48899 133.438 8.62432 133.326 8.71766C133.223 8.81099 133.074 8.85766 132.878 8.85766H131.492V12.2457C131.492 12.6843 131.581 13.0063 131.758 13.2117C131.945 13.417 132.225 13.5337 132.598 13.5617L132.99 13.5897ZM139.928 12.8757C140.058 12.8757 140.166 12.927 140.25 13.0297C140.334 13.1323 140.376 13.263 140.376 13.4217C140.376 13.6923 140.208 13.921 139.872 14.1077C139.545 14.2943 139.186 14.439 138.794 14.5417C138.411 14.6443 138.042 14.6957 137.688 14.6957C136.605 14.6957 135.751 14.383 135.126 13.7577C134.5 13.123 134.188 12.2597 134.188 11.1677C134.188 10.4677 134.323 9.84699 134.594 9.30566C134.874 8.76432 135.261 8.34432 135.756 8.04566C136.26 7.74699 136.829 7.59766 137.464 7.59766C138.378 7.59766 139.102 7.89166 139.634 8.47966C140.166 9.06766 140.432 9.86099 140.432 10.8597C140.432 11.233 140.264 11.4197 139.928 11.4197H135.602C135.695 12.8663 136.39 13.5897 137.688 13.5897C138.033 13.5897 138.332 13.543 138.584 13.4497C138.836 13.3563 139.102 13.235 139.382 13.0857C139.41 13.067 139.484 13.0297 139.606 12.9737C139.736 12.9083 139.844 12.8757 139.928 12.8757ZM137.492 8.63366C136.95 8.63366 136.516 8.80632 136.19 9.15166C135.863 9.49699 135.667 9.98232 135.602 10.6077H139.214C139.186 9.97299 139.022 9.48766 138.724 9.15166C138.434 8.80632 138.024 8.63366 137.492 8.63366Z" fill="#971D1D"/>
</svg>
