<svg width="189" height="20" viewBox="0 0 189 20" fill="none" xmlns="http://www.w3.org/2000/svg">
<rect x="46.5" y="0.842285" width="96" height="19" rx="8" fill="#EEF6F6"/>
<path d="M74.362 14.8423C74.138 14.8423 73.9607 14.7816 73.83 14.6603C73.7087 14.5296 73.648 14.357 73.648 14.1423V5.67228C73.648 5.45762 73.7087 5.28962 73.83 5.16828C73.9607 5.03762 74.138 4.97228 74.362 4.97228H79.514C79.7287 4.97228 79.892 5.02362 80.004 5.12629C80.1253 5.22895 80.186 5.37362 80.186 5.56028C80.186 5.74695 80.1253 5.89162 80.004 5.99428C79.892 6.08762 79.7287 6.13428 79.514 6.13428H75.062V9.24229H79.234C79.4487 9.24229 79.612 9.29362 79.724 9.39628C79.8453 9.49895 79.906 9.64362 79.906 9.83029C79.906 10.017 79.8453 10.1616 79.724 10.2643C79.612 10.367 79.4487 10.4183 79.234 10.4183H75.062V13.6803H79.514C79.962 13.6803 80.186 13.8716 80.186 14.2543C80.186 14.441 80.1253 14.5856 80.004 14.6883C79.892 14.791 79.7287 14.8423 79.514 14.8423H74.362ZM89.5095 7.84229C91.0401 7.84229 91.8055 8.76162 91.8055 10.6003V14.2403C91.8055 14.455 91.7401 14.623 91.6095 14.7443C91.4788 14.8563 91.3061 14.9123 91.0915 14.9123C90.8861 14.9123 90.7181 14.8563 90.5875 14.7443C90.4568 14.623 90.3915 14.455 90.3915 14.2403V10.6143C90.3915 10.045 90.2888 9.63429 90.0835 9.38228C89.8781 9.12095 89.5561 8.99028 89.1175 8.99028C88.6041 8.99028 88.1981 9.16762 87.8995 9.52228C87.6008 9.86762 87.4515 10.3436 87.4515 10.9503V14.2403C87.4515 14.455 87.3861 14.623 87.2555 14.7443C87.1248 14.8563 86.9521 14.9123 86.7375 14.9123C86.5321 14.9123 86.3641 14.8563 86.2335 14.7443C86.1028 14.623 86.0375 14.455 86.0375 14.2403V10.6143C86.0375 10.045 85.9348 9.63429 85.7295 9.38228C85.5241 9.12095 85.2021 8.99028 84.7635 8.99028C84.2501 8.99028 83.8395 9.16762 83.5315 9.52228C83.2328 9.86762 83.0835 10.3436 83.0835 10.9503V14.2403C83.0835 14.455 83.0181 14.623 82.8875 14.7443C82.7568 14.8563 82.5888 14.9123 82.3835 14.9123C82.1781 14.9123 82.0055 14.8563 81.8655 14.7443C81.7348 14.623 81.6695 14.455 81.6695 14.2403V8.54228C81.6695 8.33695 81.7395 8.17362 81.8795 8.05228C82.0195 7.93095 82.1875 7.87028 82.3835 7.87028C82.5795 7.87028 82.7381 7.93095 82.8595 8.05228C82.9901 8.16428 83.0555 8.32295 83.0555 8.52828V9.04628C83.2608 8.65428 83.5455 8.35562 83.9095 8.15028C84.2735 7.94495 84.6935 7.84229 85.1695 7.84229C85.6921 7.84229 86.1215 7.94962 86.4575 8.16428C86.8028 8.37895 87.0595 8.71028 87.2275 9.15828C87.4328 8.75695 87.7361 8.43962 88.1375 8.20628C88.5388 7.96362 88.9961 7.84229 89.5095 7.84229ZM103.019 4.90228C103.234 4.90228 103.406 4.96295 103.537 5.08428C103.668 5.20562 103.733 5.36895 103.733 5.57428V14.2263C103.733 14.441 103.668 14.609 103.537 14.7303C103.416 14.8516 103.248 14.9123 103.033 14.9123C102.818 14.9123 102.646 14.8516 102.515 14.7303C102.394 14.609 102.333 14.441 102.333 14.2263V13.6663C102.128 14.077 101.829 14.3943 101.437 14.6183C101.045 14.833 100.592 14.9403 100.079 14.9403C99.4911 14.9403 98.9638 14.791 98.4971 14.4923C98.0398 14.1936 97.6805 13.7736 97.4191 13.2323C97.1671 12.691 97.0411 12.0703 97.0411 11.3703C97.0411 10.661 97.1671 10.0403 97.4191 9.50828C97.6805 8.97628 98.0398 8.56562 98.4971 8.27628C98.9545 7.98695 99.4818 7.84229 100.079 7.84229C100.592 7.84229 101.04 7.95429 101.423 8.17829C101.815 8.39295 102.114 8.70095 102.319 9.10228V5.54628C102.319 5.35028 102.38 5.19628 102.501 5.08428C102.632 4.96295 102.804 4.90228 103.019 4.90228ZM100.415 13.8203C101.022 13.8203 101.493 13.6103 101.829 13.1903C102.165 12.7703 102.333 12.173 102.333 11.3983C102.333 10.6236 102.165 10.0263 101.829 9.60628C101.502 9.18628 101.031 8.97628 100.415 8.97628C99.7991 8.97628 99.3185 9.18628 98.9731 9.60628C98.6371 10.017 98.4691 10.605 98.4691 11.3703C98.4691 12.1356 98.6418 12.7376 98.9871 13.1763C99.3325 13.6056 99.8085 13.8203 100.415 13.8203ZM106.419 14.9123C106.213 14.9123 106.041 14.8563 105.901 14.7443C105.77 14.6323 105.705 14.4643 105.705 14.2403V8.55628C105.705 8.33228 105.77 8.16428 105.901 8.05228C106.041 7.93095 106.213 7.87028 106.419 7.87028C106.624 7.87028 106.792 7.93095 106.923 8.05228C107.053 8.16428 107.119 8.33228 107.119 8.55628V14.2403C107.119 14.4643 107.053 14.6323 106.923 14.7443C106.792 14.8563 106.624 14.9123 106.419 14.9123ZM106.419 6.49828C106.148 6.49828 105.933 6.42362 105.775 6.27428C105.616 6.12495 105.537 5.92895 105.537 5.68628C105.537 5.44362 105.616 5.25228 105.775 5.11228C105.933 4.96295 106.148 4.88828 106.419 4.88828C106.68 4.88828 106.89 4.96295 107.049 5.11228C107.217 5.25228 107.301 5.44362 107.301 5.68628C107.301 5.92895 107.221 6.12495 107.063 6.27428C106.904 6.42362 106.689 6.49828 106.419 6.49828ZM111.965 7.84229C112.871 7.84229 113.543 8.07095 113.981 8.52828C114.429 8.98562 114.653 9.68095 114.653 10.6143V14.2403C114.653 14.455 114.593 14.623 114.471 14.7443C114.35 14.8563 114.182 14.9123 113.967 14.9123C113.762 14.9123 113.599 14.8516 113.477 14.7303C113.356 14.609 113.295 14.4456 113.295 14.2403V13.7223C113.118 14.1143 112.852 14.4176 112.497 14.6323C112.152 14.8376 111.746 14.9403 111.279 14.9403C110.831 14.9403 110.421 14.8516 110.047 14.6743C109.683 14.4876 109.394 14.2356 109.179 13.9183C108.965 13.601 108.857 13.2416 108.857 12.8403C108.848 12.3363 108.974 11.9443 109.235 11.6643C109.497 11.375 109.921 11.1696 110.509 11.0483C111.097 10.9176 111.914 10.8523 112.959 10.8523H113.281V10.4463C113.281 9.92362 113.174 9.54562 112.959 9.31229C112.745 9.07895 112.399 8.96228 111.923 8.96228C111.597 8.96228 111.289 9.00428 110.999 9.08828C110.71 9.17229 110.393 9.29362 110.047 9.45228C109.795 9.59229 109.618 9.66229 109.515 9.66229C109.375 9.66229 109.259 9.61095 109.165 9.50828C109.081 9.40562 109.039 9.27495 109.039 9.11629C109.039 8.97628 109.077 8.85495 109.151 8.75228C109.235 8.64028 109.366 8.53295 109.543 8.43028C109.87 8.25295 110.253 8.11295 110.691 8.01028C111.13 7.89828 111.555 7.84229 111.965 7.84229ZM111.531 13.8903C112.045 13.8903 112.465 13.7176 112.791 13.3723C113.118 13.0176 113.281 12.565 113.281 12.0143V11.6503H113.029C112.301 11.6503 111.741 11.683 111.349 11.7483C110.957 11.8136 110.677 11.9256 110.509 12.0843C110.341 12.2336 110.257 12.453 110.257 12.7423C110.257 13.0783 110.379 13.3536 110.621 13.5683C110.864 13.783 111.167 13.8903 111.531 13.8903Z" fill="#1FA7AF"/>
</svg>
